<svg id="Layer_1" data-name="Layer 1" xmlns="http://www.w3.org/2000/svg" viewBox="0 0 149.31 107.53"><defs><style>.cls-1{fill:#fe6336;}.cls-2{fill:#f9f7f7;}</style></defs><path class="cls-1" d="M874.44,604c0,29.29-41.9,53-74.65,53-41.23,0-74.66-23.75-74.66-53s33-44,74.66-53C840.08,542.22,874.44,574.71,874.44,604Z" transform="translate(-725.13 -549.51)"/><path class="cls-2" d="M758.8,625.37q2.94-8.1,5.53-15.77c.68-2.21,1.4-4.49,2.14-6.85s1.46-4.71,2.13-7,1.28-4.59,1.83-6.79,1-4.18,1.36-6c1.15.13,2.45.26,3.91.39s2.8.26,4.06.4c1.5.15,3,.26,4.51.34-.06.15-.16.44-.29.87l-.51,1.54c-.2.6-.42,1.26-.65,2s-.49,1.47-.75,2.2c-.54,1.71-1.15,3.62-1.83,5.75l.46,0c.55-.6,1.34-1.43,2.36-2.51s2.09-2.2,3.19-3.41,2.19-2.36,3.24-3.47,1.94-2.06,2.66-2.85c2.53,0,5.05-.09,7.59-.16s5.06-.21,7.61-.41q-3.86,3.54-7.46,7-1.56,1.46-3.17,3l-3.16,3.09c-1,1-2,2-2.93,2.92s-1.72,1.81-2.45,2.6a102.21,102.21,0,0,0,3,11.64q1.82,5.63,3.69,11.5l-3.54-.26c-1.21-.08-2.39-.14-3.55-.2-1.46-.07-2.86-.13-4.22-.17s-2.78-.09-4.24-.12c-.24-2.56-.52-5.26-.82-8.09s-.57-5.52-.82-8.08l-1.46,1.16c-.45,1.16-1,2.59-1.52,4.29l-1.65,4.94c-.61,1.85-1.24,3.77-1.91,5.74Z" transform="translate(-725.13 -549.51)"/><path class="cls-2" d="M797.88,627.49q2.77-8.18,5.38-16c.68-2.16,1.41-4.44,2.18-6.82s1.51-4.72,2.2-7,1.34-4.53,2-6.69,1.1-4.12,1.5-5.91l4.55,0c1.31,0,2.65,0,4,0s2.58,0,3.64,0c.41,3.05.75,6,1,8.72.15,1.18.32,2.42.49,3.71s.34,2.52.5,3.7.31,2.33.48,3.42.33,2,.52,2.88c.27-.81.57-1.75.91-2.81s.71-2.19,1.11-3.37.81-2.39,1.24-3.63.84-2.43,1.24-3.59l3-8.46,9.28-.44q-3.28,8.69-5.88,16.46-1.18,3.36-2.33,6.79c-.77,2.28-1.49,4.49-2.17,6.61s-1.26,4.1-1.76,5.9-.9,3.33-1.21,4.58c-.15,0-.75,0-1.79.17l-3.6.45c-1.35.17-2.71.35-4.06.54s-2.36.35-3,.48c-.09-3.19-.23-6.23-.4-9.1,0-1.22-.13-2.49-.22-3.79s-.19-2.54-.27-3.73-.16-2.29-.26-3.34-.18-1.92-.28-2.64c-.2.7-.47,1.55-.81,2.56s-.67,2.08-1,3.22-.69,2.33-1,3.55-.73,2.41-1.13,3.57c-.88,2.75-1.81,5.61-2.81,8.59Z" transform="translate(-725.13 -549.51)"/></svg>