<svg id="Layer_4_copy" data-name="Layer 4 copy" xmlns="http://www.w3.org/2000/svg" viewBox="0 0 555.39 486.5"><defs><style>.cls-1{fill:#88c540;}.cls-1,.cls-2,.cls-3{fill-rule:evenodd;}.cls-2{fill:#fe6537;}.cls-3{fill:#f5f5f5;}</style></defs><path class="cls-1" d="M427.37,87.25c-7.32,3.6-9.15-6.26-7.74-11.49,1.29-3.63,4.17-3,6.48-2.09C430.4,75.37,431.81,85.19,427.37,87.25Z" transform="translate(-103.67 -68.48)"/><path class="cls-1" d="M645.76,463.64c-1.77,4-14.25,7.16-22.78-5.43-2.36-3.49-6.58-9.72-6.69-14.42-.07-3,.11-6.24,1.46-8.15,2.53-3.57,10.13-3.06,14.42-1.05.86.4,11.51,8.24,13.38,10.45C650.37,450.77,648.54,458.69,645.76,463.64Z" transform="translate(-103.67 -68.48)"/><path class="cls-1" d="M495.29,549.74c-2,.77-6.52,1.74-8.57.84-8.39-3.68-9.61-20.82-4-28.63,1.66-2.3,5.14-3.24,9.19-4,6.92-1.25,9.44,3.82,9.41,3.76C510.5,538.39,498.2,548.63,495.29,549.74Z" transform="translate(-103.67 -68.48)"/><path class="cls-1" d="M528.72,144.93c5.4-10.83,18.7-9.64,20.76.69,1.81,9.12-7.92,18-13.06,24.16-2.85,3.43-7.23,8.85-5,13.61,2.5,5.32,8.86,5.17,13.19,2.36,3.91-2.54,6.89-6.31,10-9.68,2.32-2.49,6.91-9.17,9.19-11.49,10.19-11.27,21.53-23.11,37.6-24.26,18.84-1.34,37.5,16.41,25.73,35.13-8.86,14.09-24,17.51-34.92,21.47-6.24,2.26-13.88,4.15-19.18,8.32-4,3.15-11.59,11.76-6.72,16.81,11.44,3.34,22.26-3.21,31.35-9,7.74-4.91,20.24-9.64,26.93-.22,7,9.87,1.73,18.48-9,22.73-7.91,3.13-30.94,2.61-27.37,12.4,4.61,12.68,34.64,5.72,37.68,4.25,5.68-2.74,13.23-5.94,17.49-.08,7.29,10-4.86,18.34-10.09,26.22-7,10.57,15.26,8.7,14.27,18.72-.72,7.29-1.92,13.86-7.91,18.85-6.26,5.21-3.14,14.53,12.3,23.15,6.62,3.28,7.34,6.47,6.94,13-.5,8.19-3.93,15.76-11.53,18.41-22.29,7.76-33.64-15.85-51.86-22.15-7.6-2.63-17.46,1.46-18.37,10.16-.85,8.13,3.94,13,11.7,18.18,38.68,14.42,29,35.76,25.08,42-5.73,9.26-16,14.36-25.79,7.32-8.61-6.21-27.67-42.88-38.73-30.59-18.94,21,8.83,43.94,12,46.86,7.36,6.73,12,21,10.63,32.25-1.25,10.49-4.21,20.37-13.54,26.16s-22,6.6-31.8,1.22c-9.21-5-15.58-14.47-19.12-24.19-2-5.6-2.69-11.82-3.56-17.68-.39-2.61-3.94-36.61-20.31-24.63-12.36,8.7.59,27.74,1.67,29.26,17.64,24.72,8.72,34.95,5.86,38-7,8.4-22.24,13-31.5,5.64-11.15-8.83-3.45-23.51-5.08-35.44-.55-4.09-2.74-10.89-7.52-12-3.88-.89-6.09,4.19-7.38,7-2.13,4.66-3.32,11.52-3.41,16.59a41.24,41.24,0,0,0,1,11.33c3,14.66,22,52.2-2.51,58.51-10.69,2.76-20.53-3.67-22.17-14.61a84,84,0,0,1-1.07-18.59c.42-5.56.48-16.46-6.86-15.7-9.23.95-7.7,36.82-28.32,28.47-17-6.88,4.74-37.38-3.86-48.32a2.2,2.2,0,0,0-1.46-1c-4.2.9-5.53,8.27-7.16,11.56a52.64,52.64,0,0,1-7.94,12.41c-5.82,6.32-21.9,11.93-27.5,2.11-3.17-5.58,1.59-11.55,5.19-15.63,4.24-5.14,6.36-9.34,9.35-14.1,2.12-3.36,8.12-17.2-.78-20.18-12.49-4.17-37.69,64.06-38.46,65.63-7.34,15-13.92,21.18-26.75,26.54a29.31,29.31,0,0,1-34.55-14.34c-6.68-12.51-1.19-27.66,6.76-38.33a77.33,77.33,0,0,1,16-15.68c3.44-2.47,44-27.56,28.65-40.14-8.22-6.76-32.23,12.72-41.75,17.2-10.43,4.92-26.05-.84-22.53-14.34.71-2.74,4.18-10.95,1.89-13.29-4-4.14-11.93,3.72-15.25,5.44-10.25,5.3-22.87,8.72-31.73-.72-7.77-8.29-6.28-23,.8-31.47,5.54-6.87,11-14.18,19.43-18.39,5.14-2.57,27-15.49,19-21.52-7.2-5.46-16.83,4.52-25.06,4.11-7.69-.38-17.09-5.08-15.26-14.38,2.1-10.71,12.09-13.6,20.93-17.23,7.51-3.09,19.22-12.4,12.7-20.36-9.76-11.91-27.58,9.9-34.76,16.53-11.59,10.7-23.32,21.32-36.49,30-10.52,6.94-27.4,13.89-37.56,2.44-9.26-10.43-5.33-31.94,17.8-48.48,7.61-5.44,17.65-8.8,26.55-11.39,18.71-5.43,38.89-1.45,53.83-15,5.82-5.25-.87-7.83-3.31-8.28-3.47-.63-20.31-2.27-20.33-13.31,0-5.78-1.48-10.79,3.89-14.45s12.76-3.44,18.89-5.61c5-1.78,11-4.52,15.07-8.06,2.83-2.47,4.4-7.76-.65-12-7.46-5.87-8.92-7.36-15.73-10.34-7.16-3.15-13.09-5.11-17-12.37-7.25-13.34-1.83-30.16,11-37.27,13.64-7.53,24.2-1.43,33.29,9.59,2.6,3.14,5,6.42,8.51,10.06.7.73,9.38,10.41,21.32,5.43,3.08-1.56,16.25-4.93,4.39-17.55-5.11-5.43-9.72-10.5-13.33-16.92C246.59,152,251,138,264.62,138.08c16.25.06,20.19,42.15,31.71,26.29,7-12.11-23.56-28.47-28.81-46.51-2.57-8.85-2.08-18.93,4.32-26a16,16,0,0,1,20.94-2.55,15.74,15.74,0,0,1,5,6.27c1.7,3.39,2.59,7.9,3.5,11.55,1.87,7.55,3.74,15.28,4.44,22.94.63,6.84,2.4,14.72,8.51,18.65,5.69,3.66,17,7.45,21.44-.08,7.12-12.21-3.55-29.53.41-42.72,1.69-5.63,8.55-8.76,14.12-8.2,7.87.8,10.2,9.94,16.93,11,4.81.78,7.6-9.68,11.3-11.88,5.55-3.29,11.69-2.07,15.24,3.23,2,3,3.33,15.81,8.05,14.67,5.36-1.3,7.85-8.6,13.35-10.61,18.46-6.75,18.14,16,21.27,27.37,1.54,5.56,4.41,13.85,10.55,15.7,5.26,1.59,22.5-3.44,29.79-30.54,2.2-8.2,2.57-16.81,5.07-24.44,2.74-8.34,5.17-15.74,12.92-21,9.94-6.68,22-.78,26.1,9.46,2.31,5.71,1.93,15.9.51,23.62-1.59,8.62-9.72,15.08-15.72,20.87C478.4,151.51,488.76,164,491.73,166,511.19,179.38,528.72,144.93,528.72,144.93Z" transform="translate(-103.67 -68.48)"/><path class="cls-1" d="M225.48,494.36c-4.48,3.06-10.45,7.53-17.76,4.39a10.77,10.77,0,0,1-6.27-9.82,60.78,60.78,0,0,1,1.05-6.06c1.93-8.15,12-16.57,20.27-18.6,3.15-.78,5.81.31,8.15,1.67,4.33,2.52,5.38,6.52,4.38,13.38C234.37,485.79,230.22,490.17,225.48,494.36Z" transform="translate(-103.67 -68.48)"/><path class="cls-1" d="M563.3,109.57s-7.7-4.06-13.07,8.27c0,0-5.8,12.63.58,15.53,0,0,6.25,3.63,13.5-6C564.31,127.42,572.73,114.07,563.3,109.57Z" transform="translate(-103.67 -68.48)"/><path class="cls-2" d="M559.63,268.36c-.65-3.69-6.93-8-10.62-8.44-2.66-.29-6.2,3.57-8.36,5.32-.74.61-6.88,5.34-9.37,6.8,2.19-4.23,17.43-37.19,7.28-50.84-4-5.37-16.65-7.73-23.26-4,.48-4.27,5.81-28-7-33.31-16.77-7-30.45,28.73-31.53,31.88-1.8,5.23-2.17,12.77-2.38,19.09-9.76-4.12-16-2.33-21.44,4.08-.32-8.05-9.37-4.86-11.56-3.26-2.31,4.13-3,9.88-5.36,14-.27-4.9-1.29-10.47-3.91-13.63,1.32-1.24,3.5-1.85,4.85-3.73,2.21-3,3.17-8.86,2.86-12.85-.27-3.46-2.13-6.63-4.68-7.52-11.45-4-15.58,12.88-12.38,19.15.51,1,1.82,1.87,1.93,3-9.78-1.86-17.94,28.62-19.17,29.8.65-7.94,4.26-15.24,5.49-22.25.31-1.77.77-3.15-.26-4.63,4-6.62,6.84-13.93,10.79-22.82a19.18,19.18,0,0,0,.87-2.47c2-6.78,2.4-15.92-1.81-20.71-7.66-8.69-22.19-11.09-35.46-7.05-25.19,8.55-35.56,24.22-38.3,25.71-5.81-2.53-30-11.32-32.73-11.95S290.69,192,278,201.09c-18,13-16.78,25.51-13.47,34.69A56.49,56.49,0,0,0,271.59,249a80,80,0,0,0,7.63,8.72c13.73,14.48,24.23,8.16,25,7.69,2.18-1.3,5.25-5.54,5.91-7.52,1-3,.41-7.4-.67-10.1a73.44,73.44,0,0,0-4.81-9.34c-1-1.71-5.54-7.08-5.65-8.7,2.33-1.87,5.31-1.85,9-2,9.64-.38,18.72,4.86,25.16,9-3.42,8.19-21,40.9-21.59,41.84-1.68,2.64-12.83,26.1-26.33,26.2-7.34.06-16.66-17.81-25.74-14.48-8.26,3-10.28,9.44-8.87,16.57.64,3.23,2.65,6.25,4.27,8.81,15.77,24.85,45.88,21.24,51.84,20.39-2.59,7.18-14.51,35-15.15,36.31-14.72-6.94-34.42-5.32-45.73,4.06a34.47,34.47,0,0,0-3.19,3.42A40.81,40.81,0,0,0,235,391.8a32.13,32.13,0,0,0-1.51,11.06c.28,3.73,1.33,9.08,2.79,11.8A32.52,32.52,0,0,0,250.65,428c6.16,2.71,13.9,6.07,20.91,6.13A53.52,53.52,0,0,0,283,432.45a31.32,31.32,0,0,0,9.49-3.81c5.52-3.48,10.84-6.94,14.75-11.84,2.81,1.37,25.82,4.17,44.3-8.05,22.13-14.64,29.72-40.17,30.19-41.7a39.83,39.83,0,0,0,2.09,3.77,20.41,20.41,0,0,0,10,8.86c6.71,3.14,13.91.32,20.17-2.28,4.37,5.32,12.23,8.22,20.88,6.14,11-2.62,16.22-14.21,18.09-16.16-.26,2.81,7.71,12,11.51,15,12.76,10,31.22,3.75,33.93,2.58,12.51,13.35,28.77,8.17,34.1,4.08,4.22-3.24,9.42-8.46,10.83-13.8,1.6-6.11.37-18.18-4.61-21-3.81-2.14-8.55,0-11.07,1.72-3.31,2.25-5.93,5.23-8.55,7.34,2.23-3.38,12.24-34.18-5.08-43.19-15.28-6.91-23.09.2-28.34,18.44-2-6.69-7.71-12.94-15.44-9.66-5.46,2.48-8.15,8.54-13.92,10.36,3-10-2.33-15.38-8.79-16.83a18.92,18.92,0,0,0-7.11.05c-4.94,1-7.33,3.21-9.05,7.5a4.26,4.26,0,0,0-1.15-1.24c8.13-11,11.87-22.83,15-36.08,5.6-2.17,9.46-4.67,12.54-8.4,1.09,1.93,2.08,3.77,3.9,4.69,5,2.52,11.44-1.65,14.77-2.9,2.37,4.69,4.7,9.07,10.42,10.09,5.9,1.06,11.66-2.87,16.78-4.36,2.56,5,7.56,8.83,12.72,11.3a19.88,19.88,0,0,0,4.77,1.56c19.25,3.5,30.78-13,35.11-22.59a40.76,40.76,0,0,0,3.32-10.86A12.87,12.87,0,0,0,559.63,268.36Zm-192.9-.15c-2.58,8.37-11.4,10.31-18.75,13.76,2.92-8.14,6-16.12,9.16-24C358.56,263.93,360.57,267.41,366.73,268.21ZM342,294.94c1.55,4.24,4.71,7.35,8.61,9.74-2.48,1.49-6.49,3.7-9.18,5-.6-2.79-1-5.72-3.36-6.84C339,299.81,340.77,297.68,342,294.94ZM324.32,384c.58-2.16,11.62-27.35,18.95-35.92a78.85,78.85,0,0,1,5.72-5.86,45.49,45.49,0,0,1,7.37-5.51,32.15,32.15,0,0,1,11.16-4.62,76.69,76.69,0,0,1-9.17,24.34C356.36,359.94,339.74,386.56,324.32,384Zm71.51-63.53c1.44,4.39,3.09,6.39,4.43,7.63-3.46,1.22-6.75,4.43-9.23,7.48.62-3.47,7.09-31.59-16.22-35a55.9,55.9,0,0,0,8.42-9c.85,6.71,10.92,9.75,16.25,7.71C396.49,304.09,393.54,313.5,395.83,320.46Zm88.42,27.19c.45,4.27-.59,9,.1,15.22-1.1,1-3.51,1-5,.86C479.79,357.25,482.11,352.75,484.25,347.65Zm-50.62-.16a25.25,25.25,0,0,1,2.16,2.47c-.92,2.26-2.53,3.85-3.93,5.65C432,353.1,432.59,351.44,433.63,347.49Z" transform="translate(-103.67 -68.48)"/><path class="cls-3" d="M433,215.51c4,1.44-2.54,17.19-6,12.81C424.17,223.86,427.31,212.89,433,215.51Z" transform="translate(-103.67 -68.48)"/><path class="cls-3" d="M328.37,217.13c-4.29-1.67-8.66-3.66-13.67-4-8.93-.66-16.42,1.2-22.41,5.09-1.63,1.06-4.31,3.67-4.56,5.89-.3,2.52,1.83,5.14,3.36,6.5.88.78,2.4,1.38,3.27,2.37,2.88,3.27,5.59,8.26,2.78,12.45a8.52,8.52,0,0,1-3.69,3.25c-2.46.53-16,7.64-25.56-15.63-3.21-8.07.14-16.94,5-21.76a39.63,39.63,0,0,1,26-9.83c13.19,0,42.27,11,46.93,13.33-1.48,2.79-3.23,5.3-4.44,8.37C336.84,221.49,332.83,218.86,328.37,217.13Z" transform="translate(-103.67 -68.48)"/><path class="cls-3" d="M298.36,320.28a24.32,24.32,0,0,1-7.39,2.41c-5.85.69-11,.93-16.58-.89a31.84,31.84,0,0,1-6.73-3.26,39.25,39.25,0,0,1-11.24-10.6c-1.13-2.71-3.48-6.09,0-10.09,6.77-5.14,11.49.61,12.7,2.19a40.53,40.53,0,0,0,3.58,3.7,23.09,23.09,0,0,0,11.81,6.14c5.5,1.07,14.52-2.46,22.66-15.42,1.43-3.18,18-32.87,25.34-46.58,5.46-10.94,14.36-29.67,15.74-32.25,2.79-5.25,8.48-9.86,10.44-11.58a67.08,67.08,0,0,1,12.55-8.56c2.34-1.24,8.57-4,9.33-4.32,15-5.86,26.46-3.2,30.3-1.66,4.18,1.68,6.74,7.46,6.23,13.5-.41,5.05-1.45,10.19-3.69,13.68-3.05,4.73-7.88,8.39-12.75,11.2-5.19,3-15.6,4.22-22.42,4.93-1.21.13-10.47,1.07-17.67-1.61,1.62-3.48,2.91-7.3,5.29-10,6.48.06,16.32.63,24.5-.93,6-1.14,12.72-7.55,11.83-15.36a7.82,7.82,0,0,0-1.76-3.66c-2.19-1.35-4-2.69-7.74-2.45-9.05.59-16.61,7.36-22.36,11.72a69.86,69.86,0,0,0-11.82,15c-1.06,1.86-6.89,14.25-8.74,18.39C346.26,251.81,325,292,324.33,293S313.93,312.94,298.36,320.28Z" transform="translate(-103.67 -68.48)"/><path class="cls-3" d="M361.55,384.59c-17,25.82-46.19,19.22-52.39,17.18a79.84,79.84,0,0,1-8.87-4.11c2.17-3.93,4.91-7.26,6.65-11.64,7,3,16.08,5.08,25.42,3.39,10.69-2,26.5-20.3,36.93-43.24,2.23-4.92,4.69-15.4,2.17-21.47-1.33-3.2-5-5.83-10-5.3-4.23.46-9.86,3.63-13.33,5.91a62.9,62.9,0,0,0-10.4,9.09c-18.07,19.08-32.62,48.3-33.57,49.92-2.71,4.59-5.86,9.42-9,13.91-2,2.82-14,19.59-26.18,22.9-5.13,1.39-31.35,6-30.09-21.82a27.23,27.23,0,0,1,6.21-15.46c9.09-10.41,22.54-11.39,31.92-9.73,6.12,1.08,10,2.37,14.31,5a108.83,108.83,0,0,1-6.48,11.64c-5.78-2.9-14-7.61-20.34-5.46-1.51.51-7.11,2.3-8.31,7.8-2.17,11.16,6.59,12.68,11,12.59,11.25-.22,19.89-11.21,21.06-13.06a83.08,83.08,0,0,0,7.52-14.93c.37-1,14-34.11,15.16-37,.57-1.42,2.87-7,3.44-8.38,3.31-8.21,5.76-16.87,10.81-23.81,3-1.62,8-1.43,9.91,1.15-.11,8.12-4.43,15-5.82,21.91,15.14-30.64,46.28-27.53,51.31-21.83,4.11,4.42,5.13,8.78,4.54,16.29C384.41,335.72,377.37,360.53,361.55,384.59Z" transform="translate(-103.67 -68.48)"/><path class="cls-3" d="M517.84,371.72c2.89-1.84,5.61-4.82,7.89-7,1.76-1.68,4.86-5.91,7.74-4.85,1.6.59,2.8,4.33,1.2,6.45-.06.08-11.56,15.29-19.57,16.17-8.68,1-15.93-3.57-21-8.77,1.32-1.6,3.14-2.54,4.55-4.15,1.84,2.33,3.68,4.85,7.15,5.28C509.67,375.33,514.57,373.8,517.84,371.72Z" transform="translate(-103.67 -68.48)"/><path class="cls-3" d="M467.33,338.15c1.34-1.27,5.45-6.66,8.91-3,1.61,1.9-.4,4.27-1.28,6-2.54,4.84-6.78,9.26-8.51,14.78a13.15,13.15,0,0,0,.55,8.27c2.49,5.23,8.29,5.3,11,5.22,4.82-.14,10.12-2.69,13.52-5.55,4.09-3.43,8.18-9.15,11.16-14,2.37-3.84,5.83-14.21,3.37-15.24a3.32,3.32,0,0,0-4.29,1.19c-2.72,3.39-4.3,11.59-6.26,15.48a24.37,24.37,0,0,1-7.12,8.5c-.07-11.61,2.3-29.07,10-35.21,3.4-2.72,9.47-2.73,12.73.41,9.66,9.22-2.35,30.57-9.83,38.78-.92,1-6.36,7.5-13.65,11a29.62,29.62,0,0,1-5,1.36c-7,1.75-16.73,1.19-21.2-3.83-3.79-4.75-2.35-11.46-.28-17.37,1.07-3,4.13-7.4,3.09-8.62-2.28-1.59-11.44,5.75-16.85,4.2,1.26-2.91,2.06-4.71,3.31-7.27C458,346.33,465.76,339.62,467.33,338.15Z" transform="translate(-103.67 -68.48)"/><path class="cls-3" d="M433.89,359.38a35,35,0,0,0,5.4-9.3c1.41-3.47,3.16-7.11,4.06-10.62A17.29,17.29,0,0,0,444,334c-2.79-3.14-5.39,4.28-2.19,5.78-.77,2.52-1.56,5-2.53,7.37a15.91,15.91,0,0,1-3.57-15.58,12.93,12.93,0,0,1,1.46-3.31c2.66-4.45,12.56-3.52,14.25,2.71,1.29,5.41-1.64,10.3-3.71,14.58-2.53,5.24-5.14,11.47-8,16.6-1.1,2-8.65,14.85-19.79,10.05-5.46-2.35-5.29-8.53-5.56-11.29-1.07-.28-2.27,3.72-3.58,5.54-3.76,5.22-22,9.87-25.3-.3a22.53,22.53,0,0,1-.7-5.62,25.48,25.48,0,0,1,1.28-6.29A55.33,55.33,0,0,1,390.94,343c2.24-3.79,6.18-6.83,10.85-9,3.9-1.81,10.8-3.6,16-2.26a5.46,5.46,0,0,1,3.33,2.13c.35,2.81-2.3,7.07-4.25,7.31-1.73.21-3.61-.41-5.14-.63-7.3-1.05-14.65,4.24-17,10.2-.15.38-2.62,7.45-.26,10.1,8.87,6.79,17.21-13.24,19.83-17.27,6.5-.44,9.67-3.56,8.93-12.15,5-.28,2.43,4.79,1.2,8.21-.85,2.37-8.91,17.51-5.3,23.85C424.61,370.58,431.63,362.65,433.89,359.38Z" transform="translate(-103.67 -68.48)"/><path class="cls-3" d="M477.73,269.84c-2.5,2.44-6.91,6.75-11,7.27-5.46.69-4.43-4.27-7.51-6.25-2.81.71-19.66,8.32-25.16,11.18-9.2,4.56-18.45,12.35-21.62,17.51s-7.18,12.7-3.94,18.14c1.61,2.15,5.05,3,7.27.94a11.87,11.87,0,0,0,2.2-3.11c3.22-6.82,4.36-18.28,7-24.7a24.84,24.84,0,0,1,7.85-5c-.49,5-6,22.31-7.2,25.86-1.9,5.72-3.55,11.36-8,14.35a8.16,8.16,0,0,1-3.2,1.35c-2.19.43-6.56.56-9.9-2a17.64,17.64,0,0,1-3.71-5.52,18.57,18.57,0,0,1-.74-5.31c0-5.37,2.77-13.35,5.9-17.11.26-.32,2-2.48,2.53-3.1,1-1.15,2.49-2.41,3.87-3.74,5.11-4.95,11.17-8.67,17.89-12.12,3.37-1.72,6.34-3.57,10.18-5.29,1.9-.86,3.81-1.87,5-2.57,4.6-2.7,17.2-7.55,14.37-19.45-.88-2.89-4.19-5.88-7.05-3.59-8.95,7.14-14.94,22.74-15.79,25-5.4,3.56-3.71,2.14-8.69,5.05-4.74,1.76-10.58.4-10.05-5.68-1.2-.11-1.82,3-2.72,4.59-1.36,2.36-4.88,5.4-9.33,7-2.35.83-17.49,8.65-19.82-7.07-.6-5.35-2.08-13.36,3.28-21.32.71-1.19,1.41-2.13.61-2.57-.74,0-.74.16-1.78,1.06-2.32,2-7.63,6.14-8.16,6.59-1.09.94-3.51,8.06-4,9.59a52.88,52.88,0,0,1-5.83,12.31c-4.25,6.48-11.54,10.28-19.05,11.77-1.4.28-4.53.59-5.62-.42s-1.68-4.42-.89-6,4.42-2.15,6.16-2.55a22.14,22.14,0,0,0,10.84-5.45,24.21,24.21,0,0,0,6.64-9.88c.26-.68.71-1.58,1-2.24a66.14,66.14,0,0,0,4.34-12.17c.63-2.77,2.56-8.38-1-9.47-7.72-2-7.89,14.62-1,10.21-.38,1.39-1.78,5.4-2.41,6.85-3.29,1.33-10.78,2.81-9.43-13.77.16-4.1,1.63-10.12,10.75-10.08,11.22,0,10.86,10.2,11.7,13,4.68-1.65,19.79-19.41,21.88-12.43.38,4.19-3.05,8.88-5,12.65-.85,1.64-3.83,8.91-4.3,10.19-1.17,3.19-2.23,11,2.11,13.1,3.85,1.2,8.49-1.6,10.7-7.43,3-8.44,9.89-32.34,18.66-28.32,2.75,1.68-1.72,12.24-3.08,16.33-.53,1.63-1.25,3.75-1.75,5.92a30.29,30.29,0,0,0-.76,6.61c0,2.55.86,6.11,3,6.39,6.47.89,12.51-15.11,13.93-18.36.83-1.9,5.42-14.45,5.92-18.1,1.44-.59,3.93-1.81,5.45-.58-.34,1.29-.86,3.45-1.22,4.95-.31,1.29-1.2,3.27.09,4.3,1.68-.76,9.11-12.91,17.67-8.31,4.06,2.17,3.29,9.4,2.58,14.76-.49,3.61-3.27,7.34-3.66,11.36-.34,3.47,2,5.11,5.07,3.55a22.25,22.25,0,0,0,4.19-3.4c2.82-2.7,5.47-6.42,8.27-10.12a77.09,77.09,0,0,0,7.29-11c2.55-5,5.87-11.46,8.05-27.17a41.4,41.4,0,0,0-.4-16.08c-.32-1.27-1.13-.88-1,0,.79,4.15,1.05,5.88.12,6.78-7.78,8.63-12.72,23.62-10.62,38.32a43.91,43.91,0,0,1-6.87,8.58c-2.7-11.46-1.34-27.07,2.17-37.27a100.94,100.94,0,0,1,17.25-28.09,5.44,5.44,0,0,1,8.76.64c1.79,3.3,1.41,7.56.78,12.92-.34,2.86-3.06,24.68-13.8,45.1a76.94,76.94,0,0,1-7.48,12C484.56,262.15,478.78,268.81,477.73,269.84Z" transform="translate(-103.67 -68.48)"/><path class="cls-3" d="M490.45,281.13c-2.81-3.14-5.44-6.45-6.94-10.86,1.81-2.45,3.2-5.33,5.58-7.19.79,3.48,1.64,8.28,3.79,11,2.25,2.05,5.71.81,8.11,0,4.55-1.6,17.41-18.4,19.91-24.16a38.11,38.11,0,0,0,1.9-5.1c.9-3.13,3.43-11-.45-12.58-2.88-.91-4.83,2.36-6,4.7-4.13,8.06-5.28,22.08-5.69,24.23-.18,1-5.19,5.81-7.36,7.64-1.18-14.31,4.31-47.9,18.78-48.48a11.35,11.35,0,0,1,8.56,2.62c10.16,12.75-4.32,33.45-7.72,37.59s-12.19,13.5-12.63,13.86C505.52,278.19,496.87,285.36,490.45,281.13Z" transform="translate(-103.67 -68.48)"/><path class="cls-3" d="M548.58,277.28a58,58,0,0,1-5.54,5.2c-4.76,3.74-12.62,8.49-19.85,10.1-7.65,1.71-16.06-4.4-17.81-11.05a39.45,39.45,0,0,1,6.63-5.15c2,2.62,2.42,6.85,5.86,7.51a12.45,12.45,0,0,0,4.47-.26c4.95-1.07,9.44-4.69,13.36-8.05,2.6-2.22,5.63-5,8.73-7.47,1.08-.87,2.1-2.28,2.85-2.43,2.82-.56,6,3.14,5.87,5.38C553.06,272.43,549.58,276.24,548.58,277.28Z" transform="translate(-103.67 -68.48)"/></svg>